# xmcd
#
# Track frame offsets: 
#        150
#        14349
#        30856
#        47190
#        61708
#        78616
#        94082
#        109780
#        122635
#        136985
#        154366
#        166774
#        181590
#
# Disc length: 2612 seconds
#
# Revision: 6
# Processed by: cddbd v1.5.2PL0 Copyright (c) Steve Scherf et al.
# Submitted via: ExactAudioCopy v0.99pb1
#
DISCID=980a320d
DTITLE=Rod Stewart - Thanks For The Memory... The Great American Songb
DTITLE=ook: Volume IV
DYEAR=2005
DGENRE=Jazz
TTITLE0=I've Got a Crush on You - featuring Diana Ross
TTITLE1=I Wish You Love - featuring Chris Botti
TTITLE2=You Send Me - featuring Chaka Khan
TTITLE3=Long Ago and Far Away
TTITLE4=Makin' Whoopee- featuring Elton John
TTITLE5=My One and Only Love  (feat. Roy Hargrove )
TTITLE6=Taking a Chance on Love
TTITLE7=My Funny Valentine
TTITLE8=I've Got My Love to Keep Me Warm
TTITLE9=Nevertheless - featuring Dave Koz
TTITLE10=Blue Skies
TTITLE11=Let's Fall in Love - featuring George Benson
TTITLE12=Thanks for the Memory
EXTD=Check Walmart.com for verification, the order is incorrect on the
EXTD=CD. YEAR: 2005
EXTT0=
EXTT1=
EXTT2=
EXTT3=
EXTT4=
EXTT5=
EXTT6=
EXTT7=
EXTT8=
EXTT9=
EXTT10=
EXTT11=
EXTT12=
PLAYORDER=
